<svg version="1.1" id="Layer_1" xmlns="http://www.w3.org/2000/svg" xmlns:xlink="http://www.w3.org/1999/xlink" x="0px" y="0px"
	 width="100%" viewBox="0 0 1024 1024" enable-background="new 0 0 1024 1024" xml:space="preserve">
<path fill="#000000" opacity="1.000000" stroke="none" 
	d="
M470.635376,362.653015 
	C472.612885,360.369354 474.404358,358.390991 476.070526,356.312225 
	C479.101318,352.530823 483.040497,350.785492 487.831146,350.785431 
	C497.661835,350.785339 507.492493,350.767212 517.323181,350.770935 
	C520.597107,350.772186 523.757202,351.159668 525.366028,354.581543 
	C526.999512,358.055634 524.530884,360.142365 522.577271,362.428497 
	C492.497650,397.627594 462.446411,432.850983 432.358124,468.042664 
	C426.730560,474.624725 420.947632,481.073730 415.286102,487.627045 
	C413.809845,489.335846 411.903534,490.790741 411.368042,493.170807 
	C412.570007,494.287903 413.966034,494.002075 415.235901,494.002472 
	C435.396912,494.008636 455.558655,493.878540 475.718445,494.022522 
	C480.364166,494.055664 482.228912,492.673096 482.096588,487.758606 
	C481.805176,476.936951 482.141602,466.099884 482.005554,455.271820 
	C481.954498,451.206909 483.436890,449.680145 487.578186,449.742371 
	C499.071960,449.915192 510.571655,449.820435 522.067078,449.676636 
	C525.205627,449.637390 526.462097,450.533661 526.453918,453.933044 
	C526.351990,496.421234 526.362427,538.909790 526.429993,581.398132 
	C526.434570,584.299500 525.435181,586.564087 523.624390,588.623291 
	C514.495361,599.005005 505.343933,609.367065 496.229553,619.761658 
	C493.700226,622.646240 490.670746,624.143433 486.910492,622.833923 
	C482.749420,621.384888 481.969635,617.827698 481.968994,613.927185 
	C481.965149,589.433899 481.941925,564.940613 481.943207,540.447327 
	C481.943604,533.134949 481.970245,533.145508 474.415771,533.143738 
	C441.091370,533.135803 407.766449,533.017517 374.443024,533.192993 
	C367.418091,533.229980 362.304474,531.115723 358.848175,524.746216 
	C356.798645,520.969299 353.906311,517.648438 351.379333,514.132202 
	C347.176880,508.284637 347.385010,503.781860 352.063599,498.428192 
	C390.648285,454.276093 429.226929,410.118713 467.805115,365.960907 
	C468.681854,364.957306 469.530884,363.929535 470.635376,362.653015 
z"/>
<path fill="#000000" opacity="1.000000" stroke="none" 
	d="
M621.181519,531.479614 
	C605.853516,535.152466 590.656799,534.439819 575.533752,534.150757 
	C570.446777,534.053589 567.260925,535.812866 564.203003,539.633606 
	C557.027283,548.599243 549.459839,557.251587 542.041687,566.022888 
	C541.310181,566.887817 540.721863,567.968628 539.419128,568.155029 
	C537.154541,567.018738 537.919312,564.941406 537.917297,563.282837 
	C537.892639,542.793396 537.930847,522.303894 537.996582,501.814514 
	C538.017944,495.151886 538.259155,494.987854 545.193665,494.955780 
	C563.182190,494.872528 581.180847,495.125122 599.156555,494.599030 
	C619.422485,494.005981 634.048645,479.699005 635.620789,459.809937 
	C637.218201,439.600006 624.593140,422.472412 604.897583,418.596619 
	C600.033508,417.639465 594.967102,417.390076 589.991699,417.372650 
	C563.505798,417.279785 537.019226,417.367065 510.532928,417.376678 
	C509.399597,417.377075 508.266205,417.226013 507.256226,417.154266 
	C506.222717,415.264282 507.683258,414.517120 508.466003,413.569092 
	C517.161438,403.037567 525.953003,392.584259 534.543945,381.968445 
	C536.959106,378.984039 539.621216,377.689575 543.504639,377.723389 
	C561.494141,377.880096 579.501282,377.315704 597.472961,377.901917 
	C621.043457,378.670685 642.880127,384.751770 660.148865,402.109741 
	C676.800842,418.847839 682.321106,439.517853 680.859314,462.466370 
	C679.896606,477.578918 675.406799,491.562408 666.131897,503.705200 
	C654.809570,518.528442 639.216919,526.629333 621.181519,531.479614 
z"/>
<path fill="#000000" opacity="1.000000" stroke="none" 
	d="
M468.945923,142.880310 
	C511.897278,114.690559 566.670410,131.009903 585.909668,177.874344 
	C604.323730,222.728882 580.668823,273.402832 534.375000,285.791687 
	C524.800354,288.354004 521.981201,292.317169 521.923218,302.296295 
	C521.864136,312.458099 521.754150,322.619843 521.750854,332.781616 
	C521.749512,336.782623 520.017395,338.184052 515.951660,338.162689 
	C501.787811,338.088257 503.968048,338.803040 503.836639,326.158569 
	C503.746613,317.494781 503.881470,308.828491 503.774750,300.165070 
	C503.679840,292.461090 500.606262,288.416748 493.292023,286.319733 
	C468.688843,279.265900 451.340454,264.035248 441.022217,240.591110 
	C426.195984,206.904327 438.022980,164.896194 468.945923,142.880310 
M573.439941,235.920517 
	C580.556885,219.040985 580.696228,202.035950 574.555603,184.840195 
	C565.775330,160.252335 540.806396,142.289764 514.764587,142.400696 
	C493.154297,142.492737 475.564240,151.097031 461.847961,167.970200 
	C440.698212,193.987686 444.379791,236.967163 469.860321,258.529633 
	C504.569183,287.901459 553.066101,277.595978 573.439941,235.920517 
z"/>
<path fill="#000000" opacity="1.000000" stroke="none" 
	d="
M525.349487,831.815125 
	C495.174927,835.228943 470.138580,826.323669 451.561829,802.420044 
	C416.491089,757.292725 439.438568,691.356750 490.773254,677.036926 
	C501.448975,674.058899 503.844452,670.574280 503.812775,659.520081 
	C503.804657,656.686768 504.266327,653.757507 503.710175,651.036194 
	C500.660461,636.113892 512.047180,629.309570 519.851685,620.489014 
	C521.829224,621.450989 521.339478,622.752380 521.340698,623.838501 
	C521.354431,636.171265 521.337097,648.504089 521.328735,660.836853 
	C521.322571,669.996216 524.650940,674.378479 533.332825,676.644165 
	C567.538757,685.570862 590.468506,715.982910 591.536133,751.435669 
	C592.577820,786.028809 570.269226,819.650208 535.489624,829.375793 
	C532.287842,830.271118 529.022644,830.939636 525.349487,831.815125 
M451.242889,774.262695 
	C461.621399,804.389160 490.194916,822.761536 520.504883,818.797241 
	C563.977295,813.111572 589.760986,769.759827 573.978149,728.888489 
	C562.714355,699.719788 534.299805,683.320251 504.373016,687.716858 
	C463.523651,693.718201 439.178619,733.673035 451.242889,774.262695 
z"/>
<path fill="#000000" opacity="1.000000" stroke="none" 
	d="
M343.239563,484.371796 
	C341.231598,487.499695 338.679291,488.427307 335.367065,488.293121 
	C330.376221,488.090851 325.370026,488.203918 320.371490,488.268188 
	C312.502594,488.369354 308.365051,491.407837 306.300262,499.081390 
	C301.122620,518.323364 290.932922,534.018982 274.151520,545.105286 
	C226.910446,576.314148 163.031158,548.042419 154.980576,491.987091 
	C149.490021,453.756958 173.667786,416.828156 211.818253,406.373871 
	C249.676544,395.999664 292.891693,418.813202 304.811554,458.062866 
	C307.342926,466.398010 311.955078,469.674683 320.583710,469.722107 
	C329.748810,469.772461 338.914520,469.703247 348.079803,469.736420 
	C349.875031,469.742920 351.739960,469.363647 354.001160,470.607056 
	C351.477875,475.903412 346.795929,479.499115 343.239563,484.371796 
M183.727631,438.231842 
	C174.137146,449.269562 168.391739,462.081421 167.419983,476.635773 
	C164.624710,518.501587 202.132858,551.659302 243.301697,543.621521 
	C282.449646,535.978455 304.828674,496.095093 291.960999,460.402405 
	C275.266876,414.095764 218.492737,402.342377 183.727631,438.231842 
z"/>
<path fill="#000000" opacity="1.000000" stroke="none" 
	d="
M724.861938,513.994507 
	C722.880127,508.477051 720.969849,503.333710 719.242981,498.129486 
	C716.993652,491.350555 713.175293,488.425812 705.980225,488.289307 
	C701.320129,488.200897 696.658630,488.184509 691.998840,488.084106 
	C691.549377,488.074463 691.107788,487.698151 690.282166,487.315887 
	C691.219910,482.200165 692.111511,477.015869 693.146973,471.860535 
	C693.511108,470.047455 695.102783,469.781433 696.680176,469.767395 
	C699.345337,469.743622 702.010803,469.752289 704.676025,469.729034 
	C713.700134,469.650269 717.822144,466.652283 720.807068,457.829529 
	C724.988953,445.469086 731.252319,434.303162 740.967712,425.533539 
	C763.828064,404.898560 790.281799,397.988129 819.626587,408.216736 
	C848.307922,418.214111 865.344116,439.257629 870.263306,469.150330 
	C877.348145,512.202515 849.427734,549.771729 805.682678,557.150024 
	C774.093750,562.478027 741.012695,545.698547 726.456543,516.970642 
	C726.005066,516.079529 725.496765,515.217224 724.861938,513.994507 
M735.273376,456.783478 
	C730.033081,469.299011 728.688538,482.230377 731.932922,495.400146 
	C740.343750,529.541870 771.374390,550.022217 806.071716,543.685608 
	C853.417908,535.038757 874.788025,480.233826 844.506287,441.665039 
	C814.373718,403.286194 755.410645,411.417145 735.273376,456.783478 
z"/>
<path fill="#000000" opacity="1.000000" stroke="none" 
	d="
M396.947357,230.048645 
	C335.626892,258.693604 290.890381,303.423828 262.344788,364.375336 
	C258.452698,372.685822 255.178375,381.234711 252.203934,389.894989 
	C251.115952,393.062775 249.453766,394.152069 246.249329,393.237976 
	C244.500290,392.739014 242.668716,392.432465 240.854019,392.277557 
	C233.583298,391.656921 233.476105,391.645782 235.856628,384.549500 
	C255.790222,325.127930 291.405212,277.302216 342.397339,240.940094 
	C365.201996,224.678253 389.908264,212.097916 416.612030,203.526978 
	C418.475555,202.928864 420.283905,201.843719 423.151642,203.042206 
	C423.151642,207.823944 423.269012,212.925064 423.098358,218.016510 
	C423.021881,220.298615 420.785553,220.626801 419.106110,221.223038 
	C411.726654,223.842865 404.396118,226.579819 396.947357,230.048645 
z"/>
<path fill="#000000" opacity="1.000000" stroke="none" 
	d="
M616.518433,739.454468 
	C692.519531,707.416077 744.304443,652.757507 772.820862,575.882690 
	C775.656250,568.238953 774.296814,568.077576 783.251892,569.506042 
	C792.671753,571.008667 792.575134,570.750671 789.432312,580.188782 
	C774.658813,624.554932 749.639404,662.483459 716.363342,694.953186 
	C685.429871,725.137146 649.545166,747.583191 608.280029,761.044922 
	C606.735901,761.548645 605.246887,762.523254 602.764526,761.662170 
	C602.764526,756.697449 602.704651,751.474731 602.797058,746.254639 
	C602.829163,744.438293 604.418945,743.930115 605.856812,743.405090 
	C609.296875,742.149048 612.726868,740.865295 616.518433,739.454468 
z"/>
<path fill="#000000" opacity="1.000000" stroke="none" 
	d="
M754.522583,313.525726 
	C769.832458,336.173676 781.571106,360.170013 789.925964,385.819733 
	C791.812439,391.611237 791.635559,391.852844 785.490845,392.302307 
	C784.992554,392.338776 784.491882,392.354889 783.996338,392.414154 
	C774.690491,393.527863 774.852783,393.467285 771.541626,384.749786 
	C741.831970,306.532013 688.112854,252.150970 609.779907,222.432404 
	C604.632629,220.479584 601.836731,218.592072 603.393799,212.583145 
	C604.156494,209.639801 603.525879,206.335419 603.525879,201.763489 
	C667.262085,221.811234 716.660767,259.496368 754.522583,313.525726 
z"/>
<path fill="#000000" opacity="1.000000" stroke="none" 
	d="
M350.728333,728.312134 
	C293.449066,689.253418 254.076492,637.276733 232.598236,570.610046 
	C238.484772,569.861511 243.489578,569.018433 248.528427,568.675903 
	C250.871063,568.516663 250.950348,571.049805 251.513672,572.713684 
	C262.258820,604.451355 278.212311,633.308289 299.550964,659.139221 
	C331.680450,698.032776 371.292084,726.376953 418.967224,743.172974 
	C422.316284,744.352722 423.912964,745.599670 423.454071,749.453674 
	C422.970642,753.514404 423.345764,757.677368 423.345764,763.012085 
	C396.994232,754.915527 373.266541,743.324280 350.728333,728.312134 
z"/>
<path fill="#000000" opacity="1.000000" stroke="none" 
	d="
M551.653076,220.692291 
	C549.766174,217.647583 547.247009,216.141129 544.208740,215.456421 
	C538.127625,214.085999 535.899780,216.225510 537.303467,222.263123 
	C538.760132,228.528503 538.036133,234.859100 538.115662,241.164383 
	C538.140930,243.172745 537.240906,244.921021 534.970459,244.897873 
	C532.633911,244.874023 532.023926,242.994644 531.992126,241.032883 
	C531.919312,236.537872 532.024902,232.039413 531.919800,227.545578 
	C531.661255,216.497070 524.305420,209.823654 512.684265,210.003769 
	C502.521393,210.161270 495.365936,217.497925 495.272278,227.894608 
	C495.234772,232.057373 495.278778,236.220795 495.260437,240.383804 
	C495.251251,242.463226 495.078552,244.735672 492.416504,244.828995 
	C489.874451,244.918106 489.104401,242.790375 489.072723,240.679276 
	C488.970551,233.870789 488.299835,226.962463 490.449524,220.363983 
	C491.713165,216.485184 489.805328,215.611084 486.744781,215.238785 
	C480.294678,214.454163 474.874390,219.127182 474.370178,226.019989 
	C474.188324,228.505875 474.316162,231.013321 474.261780,233.510025 
	C474.225983,235.152176 473.665771,236.563583 471.809479,236.701904 
	C469.968475,236.839081 469.262482,235.531662 468.873505,233.933640 
	C465.071106,218.311752 476.530426,206.809174 491.931671,210.977570 
	C494.279602,211.613037 495.661194,210.859177 497.322449,209.617020 
	C508.112061,201.549240 519.224182,201.573151 529.839722,209.764328 
	C531.560059,211.091812 532.935974,211.582550 535.211487,210.981293 
	C550.886841,206.839401 562.607910,218.810043 558.301147,234.367950 
	C557.898865,235.821213 557.156860,236.912643 555.638367,236.846939 
	C553.555969,236.756851 553.020874,235.163940 552.832703,233.362976 
	C552.404297,229.261108 553.637390,225.026062 551.653076,220.692291 
z"/>
<path fill="#000000" opacity="1.000000" stroke="none" 
	d="
M526.276611,173.847992 
	C530.746521,180.197052 531.111633,186.419022 527.261353,192.785049 
	C524.170654,197.895126 519.655823,200.408218 513.627686,200.324905 
	C506.554626,200.227127 501.080658,196.451508 498.850647,189.932419 
	C496.347839,182.615814 498.247894,175.302490 503.756348,171.050507 
	C509.415253,166.682373 516.264404,166.374054 522.287231,170.334351 
	C523.655396,171.233978 524.803528,172.468231 526.276611,173.847992 
M519.749878,175.680267 
	C515.751770,173.028595 511.629181,172.567062 507.708740,175.600220 
	C504.478027,178.099747 502.845001,181.658875 503.531708,185.721893 
	C504.247437,189.956680 506.781769,192.989105 511.144135,194.062531 
	C515.733887,195.191940 519.362000,193.462234 521.980774,189.779587 
	C524.965149,185.582718 524.298828,181.036652 519.749878,175.680267 
z"/>
<path fill="#000000" opacity="1.000000" stroke="none" 
	d="
M487.396912,185.569519 
	C497.137146,188.888153 500.128510,198.132004 493.735657,204.554764 
	C490.374969,207.931183 486.327698,209.506287 481.543121,207.285995 
	C476.885040,205.124420 474.310486,200.879745 474.752014,195.680664 
	C475.175812,190.690094 477.961975,187.434753 482.627869,185.884720 
	C483.985016,185.433868 485.551239,185.612183 487.396912,185.569519 
M490.995392,198.653763 
	C491.280640,193.471237 489.588867,190.915436 485.766357,191.116241 
	C481.955780,191.316406 480.278839,193.670105 480.272614,197.332230 
	C480.268097,200.007797 481.802490,201.673355 484.197784,202.389526 
	C487.172760,203.279037 489.260162,201.850861 490.995392,198.653763 
z"/>
<path fill="#000000" opacity="1.000000" stroke="none" 
	d="
M531.297974,193.789764 
	C534.411865,187.318680 538.325989,184.909058 543.835144,185.765549 
	C548.510925,186.492462 552.313538,190.618683 552.955750,195.662247 
	C553.548767,200.319519 550.693237,205.254486 546.234436,207.382492 
	C542.335632,209.243225 538.767456,208.346130 535.504883,205.969757 
	C531.490479,203.045807 530.044800,199.050919 531.297974,193.789764 
M544.503601,191.743011 
	C543.375122,191.548264 542.174988,191.005981 541.131165,191.221420 
	C537.426575,191.986099 535.690979,194.469299 536.508728,198.150513 
	C537.263672,201.549103 539.761780,203.404831 543.185852,202.469208 
	C546.770325,201.489716 548.130676,198.712418 546.930664,195.071960 
	C546.584839,194.022766 545.730469,193.141174 544.503601,191.743011 
z"/>
<path fill="#000000" opacity="1.000000" stroke="none" 
	d="
M526.549561,783.203247 
	C517.912231,783.661682 509.804321,783.092346 501.745728,781.529541 
	C498.105469,780.823547 494.311127,780.129761 493.293427,785.489136 
	C493.050293,786.769409 491.743256,787.617615 490.432587,788.096741 
	C487.150177,789.296631 483.856598,790.466248 480.580017,791.681885 
	C477.702515,792.749390 475.627869,791.940857 474.650726,789.009460 
	C471.389465,779.225464 468.156250,769.431580 465.005615,759.611511 
	C464.171936,757.012939 465.130096,754.991821 467.776917,754.032715 
	C470.751099,752.954834 473.797028,752.069458 476.748566,750.935852 
	C479.987518,749.691956 482.907196,749.341736 484.859039,753.181458 
	C487.501404,752.000366 489.923370,750.960083 492.309204,749.842651 
	C497.567352,747.380066 502.878448,747.046204 508.271515,749.352600 
	C513.030212,751.387756 518.048096,751.026489 523.044556,751.071838 
	C527.520691,751.112427 532.118164,750.883667 535.677002,754.485596 
	C537.389954,756.219299 538.716248,754.648743 540.037842,753.785645 
	C543.384094,751.600098 546.576294,749.152893 550.041504,747.182007 
	C553.988647,744.937134 558.275146,745.888916 560.752625,749.293884 
	C563.515808,753.091614 562.560303,756.764099 559.390320,759.578064 
	C550.923950,767.093506 542.299622,774.439270 533.081543,781.041809 
	C531.278992,782.332947 529.156189,782.825012 526.549561,783.203247 
M530.565002,767.637390 
	C525.088928,768.295105 519.605225,768.123657 514.131897,767.670532 
	C512.278564,767.517151 510.166260,767.043030 510.278473,764.655273 
	C510.389130,762.301086 512.495361,761.999695 514.374573,761.960327 
	C518.532166,761.872986 522.694275,761.963684 526.850037,761.836121 
	C528.724915,761.778625 531.416382,762.260742 531.362610,759.326965 
	C531.317871,756.882324 528.888550,757.074829 527.108948,756.929382 
	C518.868835,756.256287 510.616364,756.397583 502.506409,753.806519 
	C497.070953,752.069763 492.344910,755.855530 487.775360,758.548950 
	C486.775116,759.138550 486.833801,760.242065 487.140533,761.244019 
	C488.404968,765.373840 489.700989,769.494019 490.971375,773.622070 
	C491.525299,775.421936 492.851562,775.648926 494.499847,775.593323 
	C500.184357,775.401550 505.725952,776.476440 511.320496,777.350586 
	C520.986877,778.860901 530.099426,778.254028 537.516296,770.290894 
	C541.218262,766.316345 546.091614,763.456238 550.220154,759.846252 
	C552.493774,757.858154 555.542053,756.445984 556.530396,753.244263 
	C554.504456,750.796204 552.867859,752.404846 551.132385,753.276245 
	C543.799011,756.958008 538.201721,763.053894 530.565002,767.637390 
M486.628265,777.695068 
	C484.709167,771.681824 482.700500,765.695068 480.907410,759.644470 
	C479.960419,756.448853 478.250397,755.868347 475.291748,757.026489 
	C472.564148,758.094238 470.497345,759.022827 471.819763,762.719727 
	C474.000305,768.815613 475.826965,775.039795 477.734344,781.230957 
	C478.577362,783.967285 479.260834,786.268982 483.160248,784.821411 
	C486.470062,783.592712 488.598053,782.306091 486.628265,777.695068 
z"/>
<path fill="#000000" opacity="1.000000" stroke="none" 
	d="
M506.967224,724.826416 
	C508.575012,723.427063 510.098022,722.808411 511.815887,722.803284 
	C520.940857,722.776245 530.068848,722.635132 539.189575,722.827393 
	C543.557495,722.919434 546.337524,725.945496 546.027466,729.773743 
	C545.689453,733.946777 543.119019,735.999146 539.057312,736.009155 
	C530.098511,736.031372 521.130554,736.146790 512.183472,735.791321 
	C505.677094,735.532837 503.494965,730.937866 506.967224,724.826416 
M536.479065,728.248352 
	C528.157227,728.248352 519.835327,728.248352 510.542816,728.248352 
	C512.915039,730.601624 514.866455,730.117798 516.519897,730.265869 
	C523.118896,730.857117 529.745850,730.791443 536.352112,730.295227 
	C538.143250,730.160706 538.126587,729.938721 536.479065,728.248352 
z"/>
<path fill="#000000" opacity="1.000000" stroke="none" 
	d="
M210.471893,510.522217 
	C199.084351,498.499054 194.300873,484.372131 194.682999,468.338409 
	C194.777954,464.354553 193.777451,459.806671 195.370636,456.536316 
	C197.244080,452.690613 202.568909,454.469940 206.319321,453.524475 
	C214.623230,451.431122 221.817993,447.417725 227.821167,441.414368 
	C230.454239,438.781158 232.058121,438.958191 234.707138,441.564026 
	C242.037628,448.774933 250.807083,453.465851 261.273285,453.952667 
	C265.925629,454.169037 267.730133,455.993591 267.663666,460.627930 
	C267.464111,474.539917 266.667755,488.228149 259.482269,500.759003 
	C253.327393,511.492645 244.024124,518.443665 233.276978,523.867371 
	C231.184570,524.923279 229.454147,524.041443 227.634354,523.089783 
	C221.382980,519.820496 215.754837,515.712341 210.471893,510.522217 
M238.442169,513.936035 
	C256.640015,502.093262 261.761749,484.198395 261.693024,463.859863 
	C261.684479,461.323425 260.504883,460.427673 258.173431,460.009491 
	C249.027390,458.368988 240.506454,455.247131 233.483170,448.871704 
	C231.970383,447.498383 230.569931,447.604156 229.067429,448.887512 
	C221.779404,455.112549 213.259140,458.637787 203.870102,460.107758 
	C201.418076,460.491638 200.432846,461.658386 200.411118,464.057587 
	C200.225586,484.538055 206.165283,501.991547 224.069763,514.019287 
	C228.939392,517.290588 233.142181,518.553894 238.442169,513.936035 
z"/>
<path fill="#000000" opacity="1.000000" stroke="none" 
	d="
M802.999268,522.258423 
	C791.668579,522.259644 780.837524,522.295044 770.006836,522.254822 
	C762.754333,522.227905 760.725586,520.208496 760.717102,513.095520 
	C760.691345,491.433685 760.681152,469.771851 760.686951,448.110016 
	C760.688904,440.707092 763.112061,438.160767 770.526001,438.086731 
	C780.189392,437.990204 789.855225,438.138824 799.518799,438.051666 
	C803.247742,438.018036 806.216187,439.116852 808.807068,441.946747 
	C813.079346,446.612946 817.574463,451.084198 822.128296,455.479492 
	C824.467224,457.737061 825.464172,460.232758 825.339661,463.476105 
	C825.154358,468.301147 825.440857,473.144653 825.244629,477.968811 
	C825.121216,481.004883 826.097778,483.737976 828.794250,484.468506 
	C835.648682,486.325684 835.963257,492.240662 837.009888,497.294006 
	C839.672791,510.150665 830.137817,521.781250 816.995361,522.218811 
	C812.501099,522.368469 807.998047,522.254150 802.999268,522.258423 
M766.308960,510.258545 
	C765.687012,514.552612 767.393921,516.229065 771.848083,516.065308 
	C779.487671,515.784424 787.145813,516.046997 794.794983,515.965149 
	C796.821350,515.943481 799.064819,516.653320 801.058289,514.945496 
	C800.544922,513.888672 800.213318,512.951477 799.680542,512.147522 
	C791.849731,500.330811 799.921753,481.031372 814.772461,480.270447 
	C818.348450,480.087189 819.755676,478.245148 819.419861,474.730133 
	C819.263184,473.090668 819.534851,471.414368 819.541809,469.754456 
	C819.566040,463.985352 818.763306,463.176636 813.020447,463.079590 
	C802.136108,462.895721 800.759827,461.501038 800.691650,450.585876 
	C800.687500,449.920624 800.621399,449.248993 800.689087,448.591156 
	C801.025574,445.322723 799.525574,444.186951 796.325073,444.247040 
	C788.510742,444.393799 780.691650,444.266357 772.875122,444.328918 
	C766.827515,444.377289 766.315552,444.900177 766.309570,450.938507 
	C766.290283,470.397797 766.308411,489.857086 766.308960,510.258545 
M802.360840,503.102936 
	C803.651184,509.760712 807.271240,514.385681 814.139587,515.641357 
	C820.447021,516.794495 826.596252,513.749695 829.706665,508.097778 
	C831.718994,504.441040 833.126465,500.581726 828.968933,495.540710 
	C825.873474,499.112946 823.167053,502.474121 820.208557,505.596497 
	C815.455200,510.613098 815.307312,510.621307 810.558655,505.714142 
	C809.136780,504.244843 805.735229,503.110107 807.705933,500.296936 
	C810.048584,496.952911 812.299072,499.971771 814.476440,501.157745 
	C814.734009,501.298004 815.112244,501.216766 814.154968,501.153107 
	C818.640808,497.257080 822.477295,493.925049 826.588257,490.354614 
	C822.019836,486.754974 817.585205,485.022278 812.425110,487.191498 
	C805.799988,489.976471 802.307678,494.998596 802.360840,503.102936 
M809.650269,451.042297 
	C808.755676,450.459503 808.287231,449.063629 806.833008,449.521210 
	C805.564331,456.873718 806.789612,458.070343 813.623535,456.105927 
	C813.161499,454.024109 811.356201,452.970673 809.650269,451.042297 
z"/>
<path fill="#000000" opacity="1.000000" stroke="none" 
	d="
M215.734680,488.144562 
	C213.948898,486.057404 211.263351,484.391663 214.145172,481.718079 
	C217.028870,479.042755 218.575256,481.893616 220.249420,483.508972 
	C226.744888,489.776489 225.263382,490.328156 232.325775,483.260559 
	C236.548859,479.034363 240.753799,474.788727 244.896973,470.484528 
	C246.790405,468.517548 248.535812,467.742004 250.760956,470.049042 
	C252.903702,472.270660 251.728302,473.864532 250.055511,475.518555 
	C243.095413,482.400421 236.115799,489.263123 229.217819,496.206848 
	C227.246704,498.191071 225.601318,498.073120 223.739929,496.146057 
	C221.203613,493.520264 218.576843,490.981903 215.734680,488.144562 
z"/>
<path fill="#000000" opacity="1.000000" stroke="none" 
	d="
M791.004028,476.189392 
	C786.197937,476.171539 781.888611,476.219177 777.583801,476.101379 
	C775.456543,476.043213 773.445007,475.330811 773.593323,472.710968 
	C773.728271,470.326874 775.801147,469.964447 777.638123,469.949860 
	C787.412415,469.872253 797.187683,469.868225 806.962219,469.917725 
	C808.924194,469.927673 810.746155,470.692291 810.678101,473.017181 
	C810.613525,475.219696 808.940247,476.114166 806.911011,476.138367 
	C801.775391,476.199646 796.638794,476.176239 791.004028,476.189392 
z"/>
<path fill="#000000" opacity="1.000000" stroke="none" 
	d="
M793.498901,488.228485 
	C788.237854,488.240540 783.422119,488.269928 778.607483,488.212433 
	C776.426453,488.186371 773.864380,488.165253 773.665894,485.274841 
	C773.454834,482.200958 776.124756,482.096069 778.247192,482.036713 
	C783.224609,481.897644 788.208008,481.927277 793.188354,481.970276 
	C795.056213,481.986389 797.111511,482.245209 797.502563,484.495636 
	C797.945862,487.047638 796.219482,488.006897 793.498901,488.228485 
z"/>
<path fill="#000000" opacity="1.000000" stroke="none" 
	d="
M774.035645,498.514313 
	C773.792725,497.688141 773.530762,497.078522 773.728638,496.729919 
	C775.497742,493.613220 790.105347,492.666443 792.079468,495.576172 
	C793.364990,497.470917 792.764954,499.723083 790.686768,499.861176 
	C785.201538,500.225647 779.554688,501.585632 774.035645,498.514313 
z"/>
</svg>